<svg xmlns="http://www.w3.org/2000/svg" viewBox="0 0 232 55" style="enable-background:new 0 0 232 55" xml:space="preserve"><path d="M229 10.8v33.4c0 4.4-3.6 8-8 8H10.6c-4.4 0-8-3.6-8-8V10.8c0-4.4 3.6-8 8-8h210.5c4.4 0 7.9 3.6 7.9 8z" style="fill-rule:evenodd;clip-rule:evenodd;fill:#aa182c"/><path d="M10.7 51.3c-3.9 0-7.1-3.2-7.1-7.1V10.8c0-3.9 3.2-7.1 7.1-7.1h210.5c3.9 0 7.1 3.2 7.1 7.1v33.4c0 3.9-3.2 7.1-7.1 7.1H10.7zm219.4-7.1V10.8c0-4.9-3.9-8.8-8.8-8.8H10.7c-4.9 0-8.8 4-8.8 8.8v33.4c0 4.9 3.9 8.8 8.8 8.8h210.5c4.9 0 8.9-3.9 8.9-8.8z" style="fill-rule:evenodd;clip-rule:evenodd;fill:#c0c9cf"/><path d="M176.7 15.7c-3.8 3.5-5.1 8.9-4 14.3 1 3.7 3 7.9 7 9.3 4.1 1.7 9.3.9 12.9-1.4.5-.5 1.5-.8 1.5-1.7-.4-.5-.8-1.4-1.6-1.1-1.4.8-2.8 1.5-4.3 1.8-2.5.4-5.1-.2-6.7-2.1-3.1-4.3-3-11.2-.6-15.8.9-1.7 2.6-2.7 4.4-2.9 2.2-.2 4.4.5 6 2.3 1.1.6 1.2 2.6 2.8 2.1l.5-.2c-.5-2.1-1.3-4.2-1.8-6.3l-.4-.4c-1.5-.6-2.6.5-4 .6-3.6-1.6-8.7-1.6-11.7 1.5zm-61.2 2V36c0 1.4-1.5 1.1-2.4 1.5-.3.7-.1 1.7.4 2.2h10.2c.7-.4.6-1.4.5-2.1-.6-.8-2 .2-2.3-.9V17.6c.4-.9 2.1-.9 3.2-.7 1.4.8-.4 1.9.3 2.8.7.1 1.8.2 2.4-.3.9-1.9 1.6-3.9 2.2-5.9-.1-.4-.6-.5-.8-.4-1.3-.4-1.7.9-2.3 1.5h-12.7c-.7-.4-.3-1-.6-1.6-.7-.2-1.7-.1-2.4.2-.7 1.3-1.1 2.8-1.8 4.2-.1.7-1 1.4-.3 2 .6 0 1.2 0 1.7-.2.9-1.3 2-2.8 3.8-2.6.3.3.7.8.9 1.1zm54.4 15.6c-.6.4-.7 1.1-1.1 1.7-1.5 2.7-4.5 2.1-7.1 2.2-.3-.1-.4-.4-.5-.7V17.7c.4-.6 1.1-.8 1.6-.7.2-.1.4-.5.3-.9 0-.6-.1-1.1-.6-1.3h-10c-.4.1-.5.6-.5 1.1-.1 1 .9 1.2 1.6 1.3.5.1.9.6.9 1.2V36c-.1 1.4-1.5 1.1-2.4 1.5-.3.7-.1 1.7.4 2.2h13.9l.6 1c.8.3 2 .6 2.6-.2.6-1.7 1.9-4.8 2.5-6.8-.6-.6-1.8-.6-2.2-.4zm-30.6 5.1c0 .5.1 1.1.6 1.3h10.5c.7-.4.6-1.4.5-2.1-.6-.8-2.1.1-2.4-1-2-5.4-5.7-20.2-6.5-21.9h-5.3l-.5.3c-1.9 7.4-4.4 14.5-6.4 21.8-.4.9-1.7.2-2.1 1-.1.6-.1 1.4.3 1.9h6.4c.6-.5.6-1.4.3-2-.4-.5-1-.2-1.6-.4-.2-.2-.4-.3-.3-.6.4-1.4 1.3-4.3 1.3-4.3h6.4s1 4.3 1 4.7c-.2.4-.8.2-1.1.2-1 0-1.1.5-1.1 1.1zm-4.7-8.4 2.8-9.4 2.3 9.4h-5.1zM29.1 41.1c.9-.4 1.7-1.1 2.4-1.8 1.9-2.1 2.5-5.3 1.5-8-.5-2.6-3.4-3.8-5.4-5.2-.1-.4.3-.7.6-.9 2.1-1.9 3.5-4.8 2.3-7.4-.9-2.1-3-3.8-5.3-4.1-5.4-.7-10 1.3-14.2 4.1 0 0-.3.2-.4.7-.1.5 0 1 .3 1.3.5.5 2.2-.8 2.2 0 0 .9 0 11.9.1 17.4-.2.6-.8.5-1.4.6-.4.4-.4 1.1-.3 1.7.5.6 1.2.2 2 .3 5.5-.5 10.1 3.7 15.6 1.3zM21 38.5l-.7-.7-.1-4.7-.2-16.4c1.8-.8 4.6.9 4.8 3.7.5 4-3.4 5.6-4 6.3.6 2.3 3.5 1 4.7 2.6 1.6 1.1 2 3.2 1.6 5.1-.2 1.3-1 2.3-1.9 3.2-1.2.7-2.6 1.4-4.2.9zm69-24.4C83.6 17 81.1 25 84.4 31.9c3.2 6.9 10.9 10.1 17.3 7.2 6.3-2.9 8.8-10.9 5.6-17.8-3.3-6.9-11-10.1-17.3-7.2zm10.7 9.7c2.7 4.6 2.7 9.7-.1 11.3-2.7 1.6-7.1-.9-9.8-5.6-2.7-4.6-2.6-9.7.1-11.3 2.8-1.6 7.2.9 9.8 5.6zm-2.3 22.5c1-.7 2.2-1.6 2.4-2.9.1-.9.2-2.1-.7-2.7-.7-.5-1.8-.5-2.5 0-.6.7-.9 1.5-1 2.4-.4.8-1.1 1.4-2 1.7-1.7.1-3.4-.1-4.9-.8-5.8-3.2-7.9-9.9-13.2-13.8-.7-.5-1.6-.6-2.3-1.4-.2-.3 0-.8.3-.9 2.4-.4 4.6-1.9 5.6-4.3 1.1-3 .6-6.8-1.8-9-4.2-3-10-1.2-14.2.6-1.3.8-3.1 1.2-3.8 2.8-.1.5-.1 1.3.3 1.7 1 .2 1.5-.9 2.3-1.1.2 0 .4-.1.5.1-.1 5.7.4 11.7.2 17.6-.4 1.2-1.8.3-2.4 1.1-.1.8 0 1.6.6 2.1l10.1.1c1.1-.2.7-1.4.6-2.1-.5-.9-2-.1-2.2-1.4l-.1-5.7.2-.3c.6.3 1 .9 1.4 1.4 3.4 4.9 5.2 11 10.9 14.2 4.7 3 11.2 3.5 15.7.6zM70.6 25.5c-.4-2.6-.1-6-.3-8.8.1-.4.4-.7.8-.7 1-.3 1.9.2 2.6.8 1.5 1.8 1.2 5.2.1 7.1l-1.1 1c-.6.5-1.4 1-2.1.6zm126.8 6.4c3.2 6.9 10.9 10.1 17.3 7.2 6.3-2.9 8.8-10.9 5.6-17.8-3.2-6.9-10.9-10.1-17.3-7.2-6.3 2.9-8.8 10.9-5.6 17.8zm16.4-8.1c2.7 4.6 2.6 9.7-.1 11.3-2.7 1.6-7.1-.9-9.8-5.6-2.7-4.6-2.7-9.7.1-11.3 2.7-1.6 7.1.9 9.8 5.6zM36.2 31.9c3.2 6.9 10.9 10.1 17.3 7.2 6.3-2.9 8.8-10.9 5.6-17.8-3.2-6.9-11-10.1-17.3-7.2C35.5 17 33 25 36.2 31.9zm16.4-8.1c2.7 4.6 2.7 9.7-.1 11.3-2.7 1.6-7.1-.9-9.8-5.6-2.7-4.6-2.7-9.7.1-11.3 2.7-1.6 7.1.9 9.8 5.6z" style="fill:#fff"/></svg>